<svg width="0" height="0" class="hidden">
  <symbol xmlns="http://www.w3.org/2000/svg" fill="none" stroke="currentColor" stroke-width="2" stroke-linecap="round" stroke-linejoin="round" viewBox="0 0 24 24" id="twitter">
    <path d="M23 3a10.9 10.9 0 0 1-3.14 1.53 4.48 4.48 0 0 0-7.86 3v1A10.66 10.66 0 0 1 3 4s-4 9 5 13a11.64 11.64 0 0 1-7 2c9 5 20 0 20-11.5a4.5 4.5 0 0 0-.08-.83A7.72 7.72 0 0 0 23 3z"></path>
  </symbol>
  <symbol xmlns="http://www.w3.org/2000/svg" fill="none" stroke="currentColor" stroke-width="2" stroke-linecap="round" stroke-linejoin="round" viewBox="0 0 24 24" id="github">
    <path d="M9 19c-5 1.5-5-2.5-7-3m14 6v-3.87a3.37 3.37 0 0 0-.94-2.61c3.14-.35 6.44-1.54 6.44-7A5.44 5.44 0 0 0 20 4.77 5.07 5.07 0 0 0 19.91 1S18.73.65 16 2.48a13.38 13.38 0 0 0-7 0C6.27.65 5.09 1 5.09 1A5.07 5.07 0 0 0 5 4.77a5.44 5.44 0 0 0-1.5 3.78c0 5.42 3.3 6.61 6.44 7A3.37 3.37 0 0 0 9 18.13V22"></path>
  </symbol>
  <symbol xmlns="http://www.w3.org/2000/svg" fill="none" stroke="currentColor" stroke-width="2" stroke-linecap="round" stroke-linejoin="round" viewBox="0 0 24 24" id="search">
    <circle cx="11" cy="11" r="8"></circle>
    <line x1="21" y1="21" x2="16.65" y2="16.65"></line>
  </symbol>
  <symbol xmlns="http://www.w3.org/2000/svg" fill="" stroke="" stroke-width="2" stroke-linecap="round" stroke-linejoin="round" viewBox="0 0 24 24" id="star">
    <polygon points="12 2 15.09 8.26 22 9.27 17 14.14 18.18 21.02 12 17.77 5.82 21.02 7 14.14 2 9.27 8.91 8.26 12 2"></polygon>
  </symbol>
  <symbol fill="none" xmlns="http://www.w3.org/2000/svg" viewBox="0 0 115 28" id="brand-logo-light">
    <path d="M16.59 21V13.671C16.59 11.592 15.477 10.605 13.608 10.605C12.054 10.605 10.71 11.529 10.122 12.453C9.744 11.298 8.799 10.605 7.308 10.605C5.754 10.605 4.41 11.571 3.99 12.18V10.857H1.323V21H3.99V14.175C4.389 13.608 5.166 12.978 6.09 12.978C7.182 12.978 7.602 13.65 7.602 14.595V21H10.29V14.154C10.668 13.608 11.445 12.978 12.39 12.978C13.482 12.978 13.902 13.65 13.902 14.595V21H16.59ZM23.9098 21.252C27.2698 21.252 29.2858 18.816 29.2858 15.918C29.2858 13.041 27.2698 10.605 23.9098 10.605C20.5708 10.605 18.5548 13.041 18.5548 15.918C18.5548 18.816 20.5708 21.252 23.9098 21.252ZM23.9098 18.879C22.2508 18.879 21.3268 17.514 21.3268 15.918C21.3268 14.343 22.2508 12.978 23.9098 12.978C25.5688 12.978 26.5138 14.343 26.5138 15.918C26.5138 17.514 25.5688 18.879 23.9098 18.879ZM36.7664 21L40.8404 10.857H37.9634L35.3174 17.913L32.6714 10.857H29.8154L33.8894 21H36.7664ZM43.354 9.765C44.236 9.765 44.95 9.051 44.95 8.169C44.95 7.287 44.236 6.594 43.354 6.594C42.493 6.594 41.758 7.287 41.758 8.169C41.758 9.051 42.493 9.765 43.354 9.765ZM44.698 21V10.857H42.031V21H44.698Z" fill="#E6E6E6"></path>
    <path d="M52.9919 21.2499C51.4171 21.2273 49.8282 20.7214 48.8335 19.7831L50.0341 18.0781C50.676 18.7174 51.8675 19.1125 52.7284 19.1249C54.4502 19.1496 55.4945 18.0935 55.6808 16.815L48.1426 16.7068L48.151 16.1189C48.1987 12.8012 50.289 10.563 53.3127 10.6064C56.3994 10.6507 58.5281 13.0545 58.4859 15.9942C58.4392 19.2489 56.0786 21.2942 52.9919 21.2499ZM50.7513 14.9381L55.7487 15.0098C55.6372 14.0001 54.9411 12.751 53.2823 12.7272C51.5184 12.7019 50.8281 13.9731 50.7513 14.9381Z" fill="#E6E6E6"></path>
    <path d="M72.0979 21L68.9479 15.666C70.4599 15.309 72.0139 13.986 72.0139 11.508C72.0139 8.904 70.2289 6.993 67.3099 6.993H60.7579V21H63.7399V16.023H65.9239L68.6749 21H72.0979ZM66.8689 13.398H63.7399V9.618H66.8689C68.0659 9.618 68.9689 10.332 68.9689 11.508C68.9689 12.684 68.0659 13.398 66.8689 13.398ZM78.2573 21.252C81.6173 21.252 83.6333 18.816 83.6333 15.918C83.6333 13.041 81.6173 10.605 78.2573 10.605C74.9183 10.605 72.9023 13.041 72.9023 15.918C72.9023 18.816 74.9183 21.252 78.2573 21.252ZM78.2573 18.879C76.5983 18.879 75.6743 17.514 75.6743 15.918C75.6743 14.343 76.5983 12.978 78.2573 12.978C79.9163 12.978 80.8613 14.343 80.8613 15.918C80.8613 17.514 79.9163 18.879 78.2573 18.879ZM90.3159 21.252C93.6759 21.252 95.6919 18.816 95.6919 15.918C95.6919 13.041 93.6759 10.605 90.3159 10.605C86.9769 10.605 84.9609 13.041 84.9609 15.918C84.9609 18.816 86.9769 21.252 90.3159 21.252ZM90.3159 18.879C88.6569 18.879 87.7329 17.514 87.7329 15.918C87.7329 14.343 88.6569 12.978 90.3159 12.978C91.9749 12.978 92.9199 14.343 92.9199 15.918C92.9199 17.514 91.9749 18.879 90.3159 18.879ZM112.938 21V13.671C112.938 11.592 111.825 10.605 109.956 10.605C108.402 10.605 107.058 11.529 106.47 12.453C106.092 11.298 105.147 10.605 103.656 10.605C102.102 10.605 100.758 11.571 100.338 12.18V10.857H97.6705V21H100.338V14.175C100.737 13.608 101.514 12.978 102.438 12.978C103.53 12.978 103.95 13.65 103.95 14.595V21H106.638V14.154C107.016 13.608 107.793 12.978 108.738 12.978C109.83 12.978 110.25 13.65 110.25 14.595V21H112.938Z" fill="#E6E6E6"></path>
  </symbol>
</svg>